Coordinates
version=1
nRows=22
nColumns=32
inDegrees=yes

Units are S.I. units (second, meters, Newtons, ...)
If the header above contains a line with 'inDegrees', this indicates whether rotational values are in degrees (yes) or radians (no).

endheader
time	pelvis_tilt	pelvis_list	pelvis_rotation	pelvis_tx	pelvis_ty	pelvis_tz	hip_flexion_r	hip_adduction_r	hip_rotation_r	knee_angle_r	knee_adduction_r	med_cond_adduction_r	lat_cond_adduction_r	patella_r_constrained_knee_angle	hip_flexion_l	hip_adduction_l	hip_rotation_l	knee_angle_l	knee_adduction_l	med_cond_adduction_l	lat_cond_adduction_l	patella_l_constrained_knee_angle	lumbar_extension	lumbar_bending	lumbar_rotation	ankle_angle_r	subtalar_angle_r	mtp_angle_r	ankle_angle_l	subtalar_angle_l	mtp_angle_l
      2.35000000	      9.05835002	     -5.26259062	     12.28885646	      1.82758087	      0.79476434	      0.14016199	     18.25391912	      7.40283794	    -12.10435566	    -24.80248650	      0.23955005	      0.00000000	      0.00000000	     -0.43288505	    -19.04511015	     -7.38643352	     -1.52389864	    -33.82412617	     -3.65474572	     -0.00000000	     -0.00000000	     -0.59034237	    -16.96269213	      5.97100331	    -13.64545942	     -9.31018123	    -14.20051287	     -0.00000000	     -6.61004549	      4.69936985	      0.00000000
      2.35500000	      8.99988921	     -5.52987793	     12.05760507	      1.83429165	      0.79514024	      0.14073399	     17.97946831	      7.92843759	    -11.77452523	    -25.04055985	      0.24064189	     -0.00000000	     -0.00000000	     -0.43704022	    -18.14567910	     -7.53605966	     -1.41261819	    -35.66070328	     -3.78104044	     -0.00000000	     -0.00000000	     -0.62239669	    -16.88913702	      6.26247662	    -13.46782405	     -8.75013684	    -14.44411476	     -0.00000000	     -8.69181842	      4.20476978	     -0.00000000
      2.36000000	      8.93257437	     -5.75372541	     11.79070341	      1.84091113	      0.79550729	      0.14127495	     17.70569042	      8.37365526	    -11.44835671	    -25.31123466	      0.27069772	     -0.00000000	     -0.00000000	     -0.44176438	    -17.20269750	     -7.63463481	     -1.27770233	    -37.51265105	     -3.84743006	     -0.00000000	     -0.00000000	     -0.65471927	    -16.82115203	      6.51419696	    -13.24572915	     -8.08945194	    -14.55518653	     -0.00000000	    -10.76482539	      3.64117389	     -0.00000000
      2.36500000	      8.80331057	     -5.89348911	     11.40646813	      1.84742298	      0.79588809	      0.14179131	     17.45538444	      8.63927074	    -10.87447040	    -25.57756248	      0.53370863	      0.00000000	      0.00000000	     -0.44641268	    -16.20960438	     -7.54906297	     -1.23633016	    -39.30745275	     -3.99936579	      0.00000000	      0.00000000	     -0.68604447	    -16.73186767	      6.67531964	    -12.91962103	     -7.58618149	    -14.75614744	     -0.00000000	    -12.82701590	      3.18371391	     -0.00000000
      2.37000000	      8.72846571	     -6.12344200	     11.17981102	      1.85385023	      0.79625651	      0.14236813	     17.13318788	      9.09392215	    -10.60947633	    -25.71410096	      0.53737491	     -0.00000000	     -0.00000000	     -0.44879573	    -15.10624211	     -7.71223963	     -1.10029558	    -41.28281819	     -3.99944845	      0.00000000	      0.00000000	     -0.72052110	    -16.68304557	      6.89255309	    -12.69820836	     -6.89272712	    -14.86890633	      0.00000000	    -14.71498317	      2.51860087	      0.00000000
      2.37500000	      8.60337766	     -6.50380099	     11.10989666	      1.86016655	      0.79651137	      0.14284996	     16.85586675	      9.64044766	    -10.56421895	    -25.71332994	      0.53732573	     -0.00000000	     -0.00000000	     -0.44878227	    -13.79626872	     -8.15273020	     -0.74269193	    -43.39488675	     -3.79821707	     -0.00000000	     -0.00000000	     -0.75738365	    -16.53013246	      7.31686013	    -12.54892846	     -6.35425607	    -14.90816271	     -0.00000000	    -16.36436442	      1.81933388	     -0.00000000
      2.38000000	      8.47991813	     -6.53014177	     10.61833873	      1.86640160	      0.79690015	      0.14343598	     16.55432944	      9.77506877	     -9.91287689	    -25.97592316	      0.83351464	      0.00000000	      0.00000000	     -0.45336539	    -12.71967871	     -7.92444791	     -0.92050481	    -45.19769818	     -4.04104178	     -0.00000000	     -0.00000000	     -0.78884865	    -16.50824432	      7.32059118	    -12.06642440	     -5.68116008	    -15.01423032	     -0.00000000	    -17.93349208	      1.42766563	      0.00000000
      2.38500000	      8.20964867	     -6.55782240	     10.92382674	      1.87207997	      0.79691873	      0.14305713	     16.61706912	      9.47721431	    -10.50218449	    -26.55551542	      1.12526124	      0.00000000	      0.00000000	     -0.46348118	    -11.06840506	     -7.88721744	      0.57436823	    -47.49954770	     -3.45954584	     -0.00000000	     -0.00000000	     -0.82902350	    -16.27383188	      7.47987165	    -12.75390355	     -4.23816008	    -14.13380255	     -0.00000000	    -19.23507365	      0.04099311	     -0.00000000
      2.39000000	      8.18270563	     -6.90814602	     10.07446697	      1.87860051	      0.79750994	      0.14445093	     15.97358919	     10.36198772	     -9.38558028	    -26.12429320	      1.11858574	     -0.00000000	     -0.00000000	     -0.45595493	    -10.12908776	     -8.15946523	     -0.77400955	    -49.10812146	     -4.02046828	      0.00000000	      0.00000000	     -0.85709841	    -16.31930705	      7.71040284	    -11.38448195	     -4.46113452	    -14.94470029	      0.00000000	    -20.25409000	      0.21210627	      0.00000000
      2.39500000	      8.01138521	     -7.07807360	      9.79724418	      1.88453669	      0.79777907	      0.14495827	     15.69324585	     10.62544712	     -9.15586070	    -26.15583805	      1.23839856	     -0.00000000	     -0.00000000	     -0.45650549	     -8.75376913	     -8.27144527	     -0.68237511	    -51.06088510	     -3.95169442	      0.00000000	      0.00000000	     -0.89118056	    -16.21849573	      7.88177347	    -11.01374663	     -3.87170015	    -14.84611787	      0.00000000	    -21.07659729	     -0.59589601	      0.00000000
      2.40000000	      7.83233181	     -7.22248486	      9.45043329	      1.89044219	      0.79808432	      0.14552294	     15.39274566	     10.86876978	     -8.84051319	    -26.16446026	      1.38323238	      0.00000000	      0.00000000	     -0.45665598	     -7.38826136	     -8.34285553	     -0.75394919	    -52.93161644	     -3.96633502	      0.00000000	      0.00000000	     -0.92383099	    -16.12285636	      8.00135397	    -10.56759133	     -3.30812969	    -14.76287143	     -0.00000000	    -21.63887091	     -1.35167946	     -0.00000000
      2.40500000	      7.65780977	     -7.37415921	      9.14575030	      1.89626428	      0.79839170	      0.14605843	     15.08985849	     11.12150704	     -8.63458033	    -26.14298779	      1.46747898	      0.00000000	      0.00000000	     -0.45628121	     -5.98704238	     -8.44512260	     -0.80087646	    -54.77580796	     -3.97275131	      0.00000000	      0.00000000	     -0.95601820	    -16.03232290	      8.13722328	    -10.16023079	     -2.79143328	    -14.64428628	      0.00000000	    -21.98375083	     -2.16535871	      0.00000000
      2.41000000	      7.47651295	     -7.56802086	      8.92603875	      1.90204217	      0.79868856	      0.14656735	     14.77273987	     11.42922782	     -8.57767574	    -26.03598201	      1.46389178	      0.00000000	      0.00000000	     -0.45441361	     -4.52139497	     -8.63823606	     -0.80096267	    -56.60700702	     -3.96633078	     -0.00000000	     -0.00000000	     -0.98797865	    -15.91744237	      8.31916678	     -9.79409277	     -2.28810420	    -14.42863123	      0.00000000	    -22.08905559	     -3.02714377	      0.00000000
      2.41500000	      7.32114311	     -7.71074503	      8.64923105	      1.90776023	      0.79902628	      0.14709798	     14.43171953	     11.70253267	     -8.50615517	    -25.96095962	      1.42189478	      0.00000000	      0.00000000	     -0.45310422	     -3.09612553	     -8.76176296	     -0.92288686	    -58.34617636	     -4.02203952	      0.00000000	      0.00000000	     -1.01833288	    -15.84727720	      8.43635597	     -9.36008613	     -1.71319442	    -14.09978416	     -0.00000000	    -22.05927662	     -3.99136525	      0.00000000
      2.42000000	      7.13616534	     -7.72677760	      8.17979615	      1.91342556	      0.79942461	      0.14772724	     14.08279053	     11.83661720	     -8.03945861	    -25.92213460	      1.53941983	      0.00000000	      0.00000000	     -0.45242660	     -1.74782922	     -8.66494269	     -1.26935971	    -59.91474807	     -4.20138157	     -0.00000000	     -0.00000000	     -1.04570962	    -15.79646213	      8.38506563	     -8.80538637	     -1.23678307	    -14.03463153	     -0.00000000	    -21.89897155	     -4.99198795	     -0.00000000
      2.42500000	      7.01245592	     -7.68145506	      7.96664965	      1.91902900	      0.79993910	      0.14802848	     13.76185353	     11.84958102	     -8.27609403	    -26.02421825	      1.39861225	      0.00000000	      0.00000000	     -0.45420829	     -0.39690258	     -8.52226032	     -1.21493698	    -61.38349725	     -4.18052742	     -0.00000000	     -0.00000000	     -1.07134413	    -15.79245054	      8.31560155	     -8.48182541	     -0.56818512	    -13.23631949	     -0.00000000	    -21.98173833	     -6.57067379	     -0.00000000
      2.43000000	      6.82060549	     -7.89832355	      7.55968479	      1.92468469	      0.80027810	      0.14888282	     13.32785389	     12.31656642	     -7.76397616	    -25.66312296	      1.37498753	      0.00000000	      0.00000000	     -0.44790599	      1.08562500	     -8.80881164	     -1.79076513	    -62.93013749	     -4.51402209	      0.00000000	      0.00000000	     -1.09833810	    -15.68236626	      8.43875082	     -7.97835800	     -0.39617691	    -13.50560594	      0.00000000	    -21.13555137	     -6.93549845	     -0.00000000
      2.43500000	      6.73346703	     -7.96458805	      7.28692085	      1.93037745	      0.80084673	      0.14935788	     12.82849379	     12.55053323	     -7.71544153	    -25.45544837	      1.22676808	     -0.00000000	     -0.00000000	     -0.44428139	      2.39782054	     -8.84766535	     -2.08752984	    -64.25201080	     -4.75136741	     -0.00000000	     -0.00000000	     -1.12140914	    -15.67923135	      8.46850730	     -7.60791387	      0.07792996	    -13.08958060	     -0.00000000	    -20.60699035	     -7.93460039	      0.00000000
      2.44000000	      6.64256787	     -7.93500872	      6.90485254	      1.93599309	      0.80146735	      0.14992578	     12.32946105	     12.68355574	     -7.47222454	    -25.31176689	      1.13228420	     -0.00000000	     -0.00000000	     -0.44177367	      3.65288108	     -8.76444518	     -2.51814549	    -65.42239098	     -5.03862046	      0.00000000	      0.00000000	     -1.14183613	    -15.70132363	      8.36691107	     -7.15377205	      0.54972928	    -12.71046394	      0.00000000	    -20.06627872	     -8.91622726	      0.00000000
      2.44500000	      6.53828618	     -7.94541210	      6.62098126	      1.94160905	      0.80206458	      0.15040794	     11.82999297	     12.86798868	     -7.31825065	    -25.09200347	      0.98759805	     -0.00000000	      0.00000000	     -0.43793808	      4.98107006	     -8.74699969	     -2.86141998	    -66.54963241	     -5.30519439	      0.00000000	      0.00000000	     -1.16151020	    -15.69002724	      8.31675103	     -6.80375365	      0.90804344	    -12.44495387	     -0.00000000	    -19.40392353	     -9.81378414	      0.00000000
      2.45000000	      6.44087511	     -7.94631040	      6.31655927	      1.94721310	      0.80270940	      0.15091452	     11.28275669	     13.05310090	     -7.04742681	    -24.80478613	      0.86312008	      0.00000000	      0.00000000	     -0.43292519	      6.27656721	     -8.73769033	     -3.18808052	    -67.54569595	     -5.52387647	     -0.00000000	     -0.00000000	     -1.17889479	    -15.68312389	      8.25339821	     -6.45200286	      1.23341412	    -12.23971052	     -0.00000000	    -18.74340128	    -10.70485079	      0.00000000
      2.45500000	      6.40643760	     -7.87607092	      6.00835691	      1.95284621	      0.80346952	      0.15136713	     10.66310282	     13.15086242	     -6.80538116	    -24.55519386	      0.73248140	      0.00000000	      0.00000000	     -0.42856898	      7.45300296	     -8.62297279	     -3.60145597	    -68.38436216	     -5.84947890	     -0.00000000	     -0.00000000	     -1.19353228	    -15.73927809	      8.11429773	     -6.13144210	      1.61923808	    -11.89573308	     -0.00000000	    -18.00537362	    -11.44597998	     -0.00000000
